solid Box
facet normal -0.965925826283364 0.25881904512381 6.25782883008977e-011
outer loop
vertex 15.9955753620023 -86.8398840860059 -1.25618500123258
vertex 16.0500940390318 -86.4257736165055 -4.25618500172704
vertex 15.9955753610942 -86.8398840886696 -4.2561850012326
endloop
endfacet
facet normal -1.0 -2.14586031398486e-011 3.02692749952427e-010
outer loop
vertex 16.0500940390318 -86.4257736165055 -4.25618500172704
vertex 15.9955753620023 -86.8398840860059 -1.25618500123258
vertex 16.0500940399398 -86.4257736138419 -1.25618500172705
endloop
endfacet
facet normal -1.0 2.14617398503145e-011 3.02692749914319e-010
outer loop
vertex 16.0500940399398 -86.4257736138419 -1.25618500172705
vertex 15.9955753610942 -86.0116631443415 -4.25618500218184
vertex 16.0500940390318 -86.4257736165055 -4.25618500172704
endloop
endfacet
facet normal -0.965925826284042 -0.258819045121281 5.22179200875818e-010
outer loop
vertex 15.9955753610942 -86.0116631443415 -4.25618500218184
vertex 16.0500940399398 -86.4257736138419 -1.25618500172705
vertex 15.9955753620023 -86.0116631416779 -1.25618500218185
endloop
endfacet
facet normal -0.965925826294095 -0.258819045083761 5.22179200845549e-010
outer loop
vertex 15.9955753620023 -86.0116631416779 -1.25618500218185
vertex 15.8357346850868 -85.6257736165055 -4.25618500256604
vertex 15.9955753610942 -86.0116631443415 -4.25618500218184
endloop
endfacet
facet normal -0.866025403776408 -0.50000000001391 7.06080002201187e-010
outer loop
vertex 15.8357346850868 -85.6257736165055 -4.25618500256604
vertex 15.9955753620023 -86.0116631416779 -1.25618500218185
vertex 15.8357346859949 -85.6257736138419 -1.25618500256604
endloop
endfacet
facet normal -0.866025403792467 -0.499999999986094 7.06080002181351e-010
outer loop
vertex 15.8357346859949 -85.6257736138419 -1.25618500256604
vertex 15.5814648889302 -85.2944027666071 -4.2561850028534
vertex 15.8357346850868 -85.6257736165055 -4.25618500256604
endloop
endfacet
facet normal -0.707106781178342 -0.707106781194753 8.41862618229693e-010
outer loop
vertex 15.5814648889302 -85.2944027666071 -4.2561850028534
vertex 15.8357346859949 -85.6257736138419 -1.25618500256604
vertex 15.5814648898383 -85.2944027639434 -1.25618500285341
endloop
endfacet
facet normal -0.707106781178342 -0.707106781194753 8.41862618229693e-010
outer loop
vertex 15.5814648889302 -85.2944027666071 -4.2561850028534
vertex 15.2500940399398 -85.0401329677868 -1.25618500302439
vertex 15.2500940390317 -85.0401329704504 -4.25618500302438
endloop
endfacet
facet normal -0.500000000005501 -0.866025403781263 9.20273688069091e-010
outer loop
vertex 15.2500940399398 -85.0401329677868 -1.25618500302439
vertex 15.5814648889302 -85.2944027666071 -4.2561850028534
vertex 15.5814648898383 -85.2944027639434 -1.25618500285341
endloop
endfacet
facet normal -0.499999999994494 -0.866025403787618 9.20273688071401e-010
outer loop
vertex 15.2500940390317 -85.0401329704504 -4.25618500302438
vertex 14.8642045121038 -84.8802922917794 -1.2561850030673
vertex 14.8642045111958 -84.880292294443 -4.25618500306731
endloop
endfacet
facet normal -0.258819045103171 -0.965925826288894 9.35969626897831e-010
outer loop
vertex 14.8642045121038 -84.8802922917794 -1.2561850030673
vertex 15.2500940390317 -85.0401329704504 -4.25618500302438
vertex 15.2500940399398 -85.0401329677868 -1.25618500302439
endloop
endfacet
facet normal -0.258819045103171 -0.965925826288894 9.35969626897831e-010
outer loop
vertex 14.8642045121038 -84.8802922917794 -1.2561850030673
vertex 14.4500940390317 -84.8257736165055 -4.25618500297926
vertex 14.8642045111958 -84.880292294443 -4.25618500306731
endloop
endfacet
facet normal -0.130526192220053 -0.99144486137381 9.19794171299518e-010
outer loop
vertex 14.4500940390317 -84.8257736165055 -4.25618500297926
vertex 14.8642045121038 -84.8802922917794 -1.2561850030673
vertex 14.4500940399398 -84.8257736138419 -1.25618500297927
endloop
endfacet
facet normal -5.22660018245417e-019 -1.0 8.8788078241519e-010
outer loop
vertex 14.4500940390317 -84.8257736165055 -4.25618500297926
vertex 12.7001580651343 -84.8257736138419 -1.25618500400937
vertex 12.7001580642262 -84.8257736165055 -4.25618500400939
endloop
endfacet
facet normal -5.22660018245417e-019 -1.0 8.8788078241519e-010
outer loop
vertex 12.7001580651343 -84.8257736138419 -1.25618500400937
vertex 14.4500940390317 -84.8257736165055 -4.25618500297926
vertex 14.4500940399398 -84.8257736138419 -1.25618500297927
endloop
endfacet
facet normal -0.999999999637929 -2.64068857877311e-005 -5.17869165303331e-006
outer loop
vertex 12.7001580651343 -84.8257736138419 -1.25618500400937
vertex 12.7000790321133 -81.9722991293731 -4.25618499798648
vertex 12.7001580642262 -84.8257736165055 -4.25618500400939
endloop
endfacet
facet normal -0.999999999637929 -2.64068857877311e-005 -5.17869165303331e-006
outer loop
vertex 12.7000790321133 -81.9722991293731 -4.25618499798648
vertex 12.7001580651343 -84.8257736138419 -1.25618500400937
vertex 12.7000790327944 -80.9722991280413 -2.75618500017311
endloop
endfacet
facet normal -0.999999999637929 -2.64068857877311e-005 -5.17869165303331e-006
outer loop
vertex 12.7000790327944 -80.9722991280413 -2.75618500017311
vertex 12.7001580651343 -84.8257736138419 -1.25618500400937
vertex 12.7000000009082 -79.4722991267095 -1.25618499604777
endloop
endfacet
facet normal -0.999999999637929 -2.64068857877311e-005 -5.17869165303331e-006
outer loop
vertex 12.7000790327944 -80.9722991280413 -2.75618500017311
vertex 12.7000000009082 -79.4722991267095 -1.25618499604777
vertex 12.7000790321133 -79.9722991293731 -4.25618499798648
endloop
endfacet
facet normal -0.999999999637929 -2.64068857877311e-005 -5.17869165303331e-006
outer loop
vertex 12.7000790321133 -79.9722991293731 -4.25618499798648
vertex 12.7000000009082 -79.4722991267095 -1.25618499604777
vertex 12.7000000000001 -79.4722991293731 -4.25618499604776
endloop
endfacet
facet normal 3.02692749933374e-010 8.8788078241519e-010 1.0
outer loop
vertex 34.9767420564208 -88.7756684070417 -1.25618500110408
vertex 12.7000300096923 -88.0257736138419 -1.25618499828145
vertex 12.7000000009082 -88.7756684070417 -1.25618499542625
endloop
endfacet
facet normal 3.02692749933374e-010 8.8788078241519e-010 1.0
outer loop
vertex 12.7000300096923 -88.0257736138419 -1.25618499828145
vertex 34.9767420564208 -88.7756684070417 -1.25618500110408
vertex 14.4500940399398 -88.0257736138419 -1.25618499931158
endloop
endfacet
facet normal 3.02692749933374e-010 8.8788078241519e-010 1.0
outer loop
vertex 14.4500940399398 -88.0257736138419 -1.25618499931158
vertex 34.9767420564208 -88.7756684070417 -1.25618500110408
vertex 14.8642045121038 -87.9712549359044 -1.25618499952458
endloop
endfacet
facet normal 3.02692749933374e-010 8.8788078241519e-010 1.0
outer loop
vertex 14.8642045121038 -87.9712549359044 -1.25618499952458
vertex 34.9767420564208 -88.7756684070417 -1.25618500110408
vertex 15.2500940399398 -87.811414259897 -1.25618499984807
endloop
endfacet
facet normal 3.02692749933374e-010 8.8788078241519e-010 1.0
outer loop
vertex 15.2500940399398 -87.811414259897 -1.25618499984807
vertex 34.9767420564208 -88.7756684070417 -1.25618500110408
vertex 15.5814648898383 -87.5571444637404 -1.25618500025996
endloop
endfacet
facet normal 3.02692749933374e-010 8.8788078241519e-010 1.0
outer loop
vertex 15.5814648898383 -87.5571444637404 -1.25618500025996
vertex 34.9767420564208 -88.7756684070417 -1.25618500110408
vertex 15.8357346859949 -87.2257736138419 -1.25618500073218
endloop
endfacet
facet normal 3.02692749933374e-010 8.8788078241519e-010 1.0
outer loop
vertex 15.8357346859949 -87.2257736138419 -1.25618500073218
vertex 34.9767420564208 -88.7756684070417 -1.25618500110408
vertex 15.9955753620023 -86.8398840860059 -1.25618500123258
endloop
endfacet
facet normal 3.02692749933374e-010 8.8788078241519e-010 1.0
outer loop
vertex 15.9955753620023 -86.8398840860059 -1.25618500123258
vertex 34.9767420564208 -88.7756684070417 -1.25618500110408
vertex 16.0500940399398 -86.4257736138419 -1.25618500172705
endloop
endfacet
facet normal 3.02692749933374e-010 8.8788078241519e-010 1.0
outer loop
vertex 39.8261910563214 -88.7756684070417 -1.25618499542625
vertex 38.1753977037953 -87.0720420472098 -1.25618500783836
vertex 38.1753977037953 -88.7756684299283 -1.25618500538364
endloop
endfacet
facet normal 3.02692749933374e-010 8.8788078241519e-010 1.0
outer loop
vertex 12.7001580651343 -84.8257736138419 -1.25618500400937
vertex 39.8261910563214 -79.4722991267095 -1.25618501576931
vertex 12.7000000009082 -79.4722991267095 -1.25618499604777
endloop
endfacet
facet normal 3.02692749933374e-010 8.8788078241519e-010 1.0
outer loop
vertex 39.8261910563214 -79.4722991267095 -1.25618501576931
vertex 12.7001580651343 -84.8257736138419 -1.25618500400937
vertex 14.4500940399398 -84.8257736138419 -1.25618500297927
endloop
endfacet
facet normal 3.02692749933374e-010 8.8788078241519e-010 1.0
outer loop
vertex 39.8261910563214 -79.4722991267095 -1.25618501576931
vertex 14.4500940399398 -84.8257736138419 -1.25618500297927
vertex 14.8642045121038 -84.8802922917794 -1.2561850030673
endloop
endfacet
facet normal 3.02692749933374e-010 8.8788078241519e-010 1.0
outer loop
vertex 39.8261910563214 -79.4722991267095 -1.25618501576931
vertex 14.8642045121038 -84.8802922917794 -1.2561850030673
vertex 15.2500940399398 -85.0401329677868 -1.25618500302439
endloop
endfacet
facet normal 3.02692749933374e-010 8.8788078241519e-010 1.0
outer loop
vertex 39.8261910563214 -79.4722991267095 -1.25618501576931
vertex 15.2500940399398 -85.0401329677868 -1.25618500302439
vertex 15.5814648898383 -85.2944027639434 -1.25618500285341
endloop
endfacet
facet normal 3.02692749933374e-010 8.8788078241519e-010 1.0
outer loop
vertex 39.8261910563214 -79.4722991267095 -1.25618501576931
vertex 15.5814648898383 -85.2944027639434 -1.25618500285341
vertex 15.8357346859949 -85.6257736138419 -1.25618500256604
endloop
endfacet
facet normal 3.02692749933374e-010 8.8788078241519e-010 1.0
outer loop
vertex 39.8261910563214 -79.4722991267095 -1.25618501576931
vertex 15.8357346859949 -85.6257736138419 -1.25618500256604
vertex 15.9955753620023 -86.0116631416779 -1.25618500218185
endloop
endfacet
facet normal 3.02692749933374e-010 8.8788078241519e-010 1.0
outer loop
vertex 39.8261910563214 -79.4722991267095 -1.25618501576931
vertex 15.9955753620023 -86.0116631416779 -1.25618500218185
vertex 16.0500940399398 -86.4257736138419 -1.25618500172705
endloop
endfacet
facet normal 3.02692749933374e-010 8.8788078241519e-010 1.0
outer loop
vertex 39.8261910563214 -79.4722991267095 -1.25618501576931
vertex 16.0500940399398 -86.4257736138419 -1.25618500172705
vertex 35.2141981644564 -86.1858437874535 -1.25618500777763
endloop
endfacet
facet normal 3.02692749933374e-010 8.8788078241519e-010 1.0
outer loop
vertex 35.2141981644564 -86.1858437874535 -1.25618500777763
vertex 16.0500940399398 -86.4257736138419 -1.25618500172705
vertex 35.0432402058486 -86.566938455205 -1.2561850072787
endloop
endfacet
facet normal 3.02692749933374e-010 8.8788078241519e-010 1.0
outer loop
vertex 35.0432402058486 -86.566938455205 -1.2561850072787
vertex 16.0500940399398 -86.4257736138419 -1.25618500172705
vertex 34.9767420564208 -86.9792948126468 -1.25618500678189
endloop
endfacet
facet normal 3.02692749933374e-010 8.8788078241519e-010 1.0
outer loop
vertex 34.9767420564208 -86.9792948126468 -1.25618500678189
vertex 16.0500940399398 -86.4257736138419 -1.25618500172705
vertex 34.9767420564208 -88.7756684070417 -1.25618500110408
endloop
endfacet
facet normal 3.02692749933374e-010 8.8788078241519e-010 1.0
outer loop
vertex 39.8261910563214 -79.4722991267095 -1.25618501576931
vertex 35.2141981644564 -86.1858437874535 -1.25618500777763
vertex 35.4779654298864 -85.8619817812108 -1.25618500824471
endloop
endfacet
facet normal 3.02692749933374e-010 8.8788078241519e-010 1.0
outer loop
vertex 39.8261910563214 -79.4722991267095 -1.25618501576931
vertex 35.4779654298864 -85.8619817812108 -1.25618500824471
vertex 35.8165666988956 -85.6174230969951 -1.2561850086481
endloop
endfacet
facet normal 3.02692749933374e-010 8.8788078241519e-010 1.0
outer loop
vertex 39.8261910563214 -79.4722991267095 -1.25618501576931
vertex 35.8165666988956 -85.6174230969951 -1.2561850086481
vertex 36.2069268545661 -85.4688340049833 -1.25618500896031
endloop
endfacet
facet normal 3.02692749933374e-010 8.8788078241519e-010 1.0
outer loop
vertex 39.8261910563214 -79.4722991267095 -1.25618501576931
vertex 36.2069268545661 -85.4688340049833 -1.25618500896031
vertex 36.6224434973896 -85.426340606241 -1.25618500916007
endloop
endfacet
facet normal 3.02692749933374e-010 8.8788078241519e-010 1.0
outer loop
vertex 39.8261910563214 -79.4722991267095 -1.25618501576931
vertex 36.6224434973896 -85.426340606241 -1.25618500916007
vertex 37.0347998548314 -85.4928387556688 -1.25618500923375
endloop
endfacet
facet normal 3.02692749933374e-010 8.8788078241519e-010 1.0
outer loop
vertex 39.8261910563214 -79.4722991267095 -1.25618501576931
vertex 37.0347998548314 -85.4928387556688 -1.25618500923375
vertex 37.4158945225829 -85.6637967142766 -1.25618500917634
endloop
endfacet
facet normal 3.02692749933374e-010 8.8788078241519e-010 1.0
outer loop
vertex 39.8261910563214 -79.4722991267095 -1.25618501576931
vertex 37.4158945225829 -85.6637967142766 -1.25618500917634
vertex 37.7397565288256 -85.9275639797066 -1.25618500899175
endloop
endfacet
facet normal 3.02692749933374e-010 8.8788078241519e-010 1.0
outer loop
vertex 39.8261910563214 -79.4722991267095 -1.25618501576931
vertex 37.7397565288256 -85.9275639797066 -1.25618500899175
vertex 37.9843152130413 -86.2661652487158 -1.25618500869257
endloop
endfacet
facet normal 3.02692749933374e-010 8.8788078241519e-010 1.0
outer loop
vertex 39.8261910563214 -79.4722991267095 -1.25618501576931
vertex 37.9843152130413 -86.2661652487158 -1.25618500869257
vertex 38.132904305053 -86.6565254043863 -1.25618500829917
endloop
endfacet
facet normal 3.02692749933374e-010 8.8788078241519e-010 1.0
outer loop
vertex 39.8261910563214 -79.4722991267095 -1.25618501576931
vertex 38.132904305053 -86.6565254043863 -1.25618500829917
vertex 38.1753977037953 -87.0720420472098 -1.25618500783836
endloop
endfacet
facet normal 3.02692749933374e-010 8.8788078241519e-010 1.0
outer loop
vertex 39.8261910563214 -79.4722991267095 -1.25618501576931
vertex 38.1753977037953 -87.0720420472098 -1.25618500783836
vertex 39.8261910563214 -88.7756684070417 -1.25618499542625
endloop
endfacet
facet normal -0.0289835107965151 -0.999579889804666 8.96280873231977e-010
outer loop
vertex 36.6224434973896 -85.426340606241 -1.25618500916007
vertex 36.2069268536581 -85.4688340076469 -4.25618500896032
vertex 36.6224434964815 -85.4263406089047 -4.25618500916007
endloop
endfacet
facet normal 0.230714390954131 -0.97302151559288 7.94091531124311e-010
outer loop
vertex 36.2069268536581 -85.4688340076469 -4.25618500896032
vertex 36.6224434973896 -85.426340606241 -1.25618500916007
vertex 36.2069268545661 -85.4688340049833 -1.25618500896031
endloop
endfacet
facet normal 0.230714390973337 -0.973021515588326 7.94091531114454e-010
outer loop
vertex 36.2069268545661 -85.4688340049833 -1.25618500896031
vertex 35.8165666979875 -85.6174230996587 -4.25618500864812
vertex 36.2069268536581 -85.4688340076469 -4.25618500896032
endloop
endfacet
facet normal 0.47468948824491 -0.880153333090199 6.37786163468145e-010
outer loop
vertex 35.8165666979875 -85.6174230996587 -4.25618500864812
vertex 36.2069268545661 -85.4688340049833 -1.25618500896031
vertex 35.8165666988956 -85.6174230969951 -1.2561850086481
endloop
endfacet
facet normal 0.474689488270675 -0.880153333076303 6.37786163448008e-010
outer loop
vertex 35.8165666988956 -85.6174230969951 -1.2561850086481
vertex 35.4779654289784 -85.8619817838744 -4.2561850082447
vertex 35.8165666979875 -85.6174230996587 -4.25618500864812
endloop
endfacet
facet normal 0.686315281375162 -0.727304155461065 4.38016722763844e-010
outer loop
vertex 35.4779654289784 -85.8619817838744 -4.2561850082447
vertex 35.8165666988956 -85.6174230969951 -1.2561850086481
vertex 35.4779654298864 -85.8619817812108 -1.25618500824471
endloop
endfacet
facet normal 0.686315281375162 -0.727304155461065 4.38016722763844e-010
outer loop
vertex 35.4779654289784 -85.8619817838744 -4.2561850082447
vertex 35.2141981644564 -86.1858437874535 -1.25618500777763
vertex 35.2141981635483 -86.1858437901171 -4.25618500777763
endloop
endfacet
facet normal 0.851169822293286 -0.524890401528944 2.08397166221486e-010
outer loop
vertex 35.2141981644564 -86.1858437874535 -1.25618500777763
vertex 35.4779654289784 -85.8619817838744 -4.2561850082447
vertex 35.4779654298864 -85.8619817812108 -1.25618500824471
endloop
endfacet
facet normal -6.78563935580678e-019 1.0 -8.87880546397483e-010
outer loop
vertex 33.6767420555127 -79.4722991293632 -4.25618501704153
vertex 39.8261910553612 -79.4722991300923 -5.7561850157693
vertex 33.6767420554606 -79.4722991300823 -5.75618501704152
endloop
endfacet
facet normal -6.78563935580678e-019 1.0 -8.87880546397483e-010
outer loop
vertex 39.8261910553612 -79.4722991300923 -5.7561850157693
vertex 33.6767420555127 -79.4722991293632 -4.25618501704153
vertex 39.8261910563214 -79.4722991267095 -1.25618501576931
endloop
endfacet
facet normal -6.78563935580678e-019 1.0 -8.87880546397483e-010
outer loop
vertex 39.8261910563214 -79.4722991267095 -1.25618501576931
vertex 33.6767420555127 -79.4722991293632 -4.25618501704153
vertex 12.7000000000001 -79.4722991293731 -4.25618499604776
endloop
endfacet
facet normal -6.78563935580678e-019 1.0 -8.87880546397483e-010
outer loop
vertex 39.8261910563214 -79.4722991267095 -1.25618501576931
vertex 12.7000000000001 -79.4722991293731 -4.25618499604776
vertex 12.7000000009082 -79.4722991267095 -1.25618499604777
endloop
endfacet
facet normal 1.0 -6.7399276750533e-019 -3.02693322153241e-010
outer loop
vertex 39.8261910553612 -79.4722991300923 -5.7561850157693
vertex 39.8261910554133 -82.4722991293731 -4.25618501242114
vertex 39.8261910553612 -82.4722991300923 -5.75618501242114
endloop
endfacet
facet normal 1.0 -6.7399276750533e-019 -3.02693322153241e-010
outer loop
vertex 39.8261910554133 -82.4722991293731 -4.25618501242114
vertex 39.8261910563214 -88.7756684070417 -1.25618499542625
vertex 39.8261910554133 -88.7756684097054 -4.25618499542624
endloop
endfacet
facet normal 1.0 -6.7399276750533e-019 -3.02693322153241e-010
outer loop
vertex 39.8261910563214 -88.7756684070417 -1.25618499542625
vertex 39.8261910554133 -82.4722991293731 -4.25618501242114
vertex 39.8261910563214 -79.4722991267095 -1.25618501576931
endloop
endfacet
facet normal 1.0 -6.7399276750533e-019 -3.02693322153241e-010
outer loop
vertex 39.8261910563214 -79.4722991267095 -1.25618501576931
vertex 39.8261910554133 -82.4722991293731 -4.25618501242114
vertex 39.8261910553612 -79.4722991300923 -5.7561850157693
endloop
endfacet
facet normal 1.38639607478584e-008 -1.0 8.8788077821867e-010
outer loop
vertex 39.8261910554133 -88.7756684097054 -4.25618499542624
vertex 38.1753977037953 -88.7756684299283 -1.25618500538364
vertex 38.1753977028873 -88.7756684325919 -4.25618500538363
endloop
endfacet
facet normal 1.38639607478584e-008 -1.0 8.8788077821867e-010
outer loop
vertex 38.1753977037953 -88.7756684299283 -1.25618500538364
vertex 39.8261910554133 -88.7756684097054 -4.25618499542624
vertex 39.8261910563214 -88.7756684070417 -1.25618499542625
endloop
endfacet
facet normal -1.0 5.55425829272297e-019 3.02693322434819e-010
outer loop
vertex 38.1753977037953 -88.7756684299283 -1.25618500538364
vertex 38.1753977028873 -87.0720420498734 -4.25618500783836
vertex 38.1753977028873 -88.7756684325919 -4.25618500538363
endloop
endfacet
facet normal -1.0 5.55425829272297e-019 3.02693322434819e-010
outer loop
vertex 38.1753977028873 -87.0720420498734 -4.25618500783836
vertex 38.1753977037953 -88.7756684299283 -1.25618500538364
vertex 38.1753977037953 -87.0720420472098 -1.25618500783836
endloop
endfacet
facet normal -0.994811452581325 -0.101735803987751 3.91451479491339e-010
outer loop
vertex 38.1753977037953 -87.0720420472098 -1.25618500783836
vertex 38.132904304145 -86.6565254070499 -4.25618500829916
vertex 38.1753977028873 -87.0720420498734 -4.25618500783836
endloop
endfacet
facet normal -0.973021515586054 -0.230714390982918 4.9937343227744e-010
outer loop
vertex 38.132904304145 -86.6565254070499 -4.25618500829916
vertex 38.1753977037953 -87.0720420472098 -1.25618500783836
vertex 38.132904305053 -86.6565254043863 -1.25618500829917
endloop
endfacet
facet normal -0.973021515595152 -0.230714390944548 4.99373432246126e-010
outer loop
vertex 38.132904305053 -86.6565254043863 -1.25618500829917
vertex 37.9843152121332 -86.2661652513794 -4.25618500869256
vertex 38.132904304145 -86.6565254070499 -4.25618500829916
endloop
endfacet
facet normal -0.880153333075424 -0.474689488272303 6.87883707003104e-010
outer loop
vertex 37.9843152121332 -86.2661652513794 -4.25618500869256
vertex 38.132904305053 -86.6565254043863 -1.25618500829917
vertex 37.9843152130413 -86.2661652487158 -1.25618500869257
endloop
endfacet
facet normal -0.880153333091079 -0.474689488243276 6.8788370698207e-010
outer loop
vertex 37.9843152130413 -86.2661652487158 -1.25618500869257
vertex 37.7397565279175 -85.9275639823702 -4.25618500899175
vertex 37.9843152121332 -86.2661652513794 -4.25618500869256
endloop
endfacet
facet normal -0.727304155440102 -0.686315281397376 8.29515843878739e-010
outer loop
vertex 37.7397565279175 -85.9275639823702 -4.25618500899175
vertex 37.9843152130413 -86.2661652487158 -1.25618500869257
vertex 37.7397565288256 -85.9275639797066 -1.25618500899175
endloop
endfacet
facet normal -0.727304155440102 -0.686315281397376 8.29515843878739e-010
outer loop
vertex 37.7397565279175 -85.9275639823702 -4.25618500899175
vertex 37.4158945225829 -85.6637967142766 -1.25618500917634
vertex 37.4158945216748 -85.6637967169402 -4.25618500917633
endloop
endfacet
facet normal -0.524890401552671 -0.851169822278654 9.14617846832581e-010
outer loop
vertex 37.4158945225829 -85.6637967142766 -1.25618500917634
vertex 37.7397565279175 -85.9275639823702 -4.25618500899175
vertex 37.7397565288256 -85.9275639797066 -1.25618500899175
endloop
endfacet
facet normal -0.524890401540818 -0.851169822285964 9.14617846835483e-010
outer loop
vertex 37.4158945216748 -85.6637967169402 -4.25618500917633
vertex 37.0347998548314 -85.4928387556688 -1.25618500923375
vertex 37.0347998539233 -85.4928387583325 -4.25618500923375
endloop
endfacet
facet normal -0.286706234203307 -0.95801854641179 9.37390155010404e-010
outer loop
vertex 37.0347998548314 -85.4928387556688 -1.25618500923375
vertex 37.4158945216748 -85.6637967169402 -4.25618500917633
vertex 37.4158945225829 -85.6637967142766 -1.25618500917634
endloop
endfacet
facet normal -0.286706234203307 -0.95801854641179 9.37390155010404e-010
outer loop
vertex 37.0347998548314 -85.4928387556688 -1.25618500923375
vertex 36.6224434964815 -85.4263406089047 -4.25618500916007
vertex 37.0347998539233 -85.4928387583325 -4.25618500923375
endloop
endfacet
facet normal -0.0289835108053722 -0.999579889804409 8.9628087323443e-010
outer loop
vertex 36.6224434964815 -85.4263406089047 -4.25618500916007
vertex 37.0347998548314 -85.4928387556688 -1.25618500923375
vertex 36.6224434973896 -85.426340606241 -1.25618500916007
endloop
endfacet
facet normal 0.851169822271325 -0.524890401564556 2.08397166259752e-010
outer loop
vertex 35.2141981635483 -86.1858437901171 -4.25618500777763
vertex 35.0432402058486 -86.566938455205 -1.2561850072787
vertex 35.0432402049405 -86.5669384578686 -4.2561850072787
endloop
endfacet
facet normal 0.958018546418476 -0.286706234180965 -3.5424312774675e-011
outer loop
vertex 35.0432402058486 -86.566938455205 -1.2561850072787
vertex 35.2141981635483 -86.1858437901171 -4.25618500777763
vertex 35.2141981644564 -86.1858437874535 -1.25618500777763
endloop
endfacet
facet normal 0.958018546405856 -0.286706234223135 -3.54243127334133e-011
outer loop
vertex 35.0432402049405 -86.5669384578686 -4.2561850072787
vertex 34.9767420564208 -86.9792948126468 -1.25618500678189
vertex 34.9767420555127 -86.9792948153104 -4.25618500678191
endloop
endfacet
facet normal 0.987245237977294 -0.159206909684086 -1.57475220405765e-010
outer loop
vertex 34.9767420564208 -86.9792948126468 -1.25618500678189
vertex 35.0432402049405 -86.5669384578686 -4.2561850072787
vertex 35.0432402058486 -86.566938455205 -1.2561850072787
endloop
endfacet
facet normal 1.0 -7.62315968684406e-019 -3.02693322422444e-010
outer loop
vertex 34.9767420555127 -86.9792948153104 -4.25618500678191
vertex 34.9767420564208 -88.7756684070417 -1.25618500110408
vertex 34.9767420555127 -88.7756684097054 -4.25618500110408
endloop
endfacet
facet normal 1.0 -7.62315968684406e-019 -3.02693322422444e-010
outer loop
vertex 34.9767420564208 -88.7756684070417 -1.25618500110408
vertex 34.9767420555127 -86.9792948153104 -4.25618500678191
vertex 34.9767420564208 -86.9792948126468 -1.25618500678189
endloop
endfacet
facet normal 2.26300498580509e-019 -1.0 8.8788078241519e-010
outer loop
vertex 34.9767420564208 -88.7756684070417 -1.25618500110408
vertex 12.7000000000001 -88.7756684097054 -4.25618499542624
vertex 34.9767420555127 -88.7756684097054 -4.25618500110408
endloop
endfacet
facet normal 2.26300498580509e-019 -1.0 8.8788078241519e-010
outer loop
vertex 12.7000000000001 -88.7756684097054 -4.25618499542624
vertex 34.9767420564208 -88.7756684070417 -1.25618500110408
vertex 12.7000000009082 -88.7756684070417 -1.25618499542625
endloop
endfacet
facet normal -0.999999999199307 4.00173255883546e-005 3.02657219076657e-010
outer loop
vertex 12.7000000009082 -88.7756684070417 -1.25618499542625
vertex 12.7000300087842 -88.0257736165055 -4.25618499828145
vertex 12.7000000000001 -88.7756684097054 -4.25618499542624
endloop
endfacet
facet normal -0.999999999199307 4.00173255883546e-005 3.02657219076657e-010
outer loop
vertex 12.7000300087842 -88.0257736165055 -4.25618499828145
vertex 12.7000000009082 -88.7756684070417 -1.25618499542625
vertex 12.7000300096923 -88.0257736138419 -1.25618499828145
endloop
endfacet
facet normal -5.22621774239206e-019 1.0 -8.8788078241519e-010
outer loop
vertex 12.7000300087842 -88.0257736165055 -4.25618499828145
vertex 14.4500940399398 -88.0257736138419 -1.25618499931158
vertex 14.4500940390317 -88.0257736165055 -4.25618499931157
endloop
endfacet
facet normal -5.22621774239206e-019 1.0 -8.8788078241519e-010
outer loop
vertex 14.4500940399398 -88.0257736138419 -1.25618499931158
vertex 12.7000300087842 -88.0257736165055 -4.25618499828145
vertex 12.7000300096923 -88.0257736138419 -1.25618499828145
endloop
endfacet
facet normal -0.130526192220052 0.99144486137381 -8.40775507176679e-010
outer loop
vertex 14.4500940390317 -88.0257736165055 -4.25618499931157
vertex 14.8642045121038 -87.9712549359044 -1.25618499952458
vertex 14.8642045111958 -87.9712549385681 -4.2561849995246
endloop
endfacet
facet normal -0.258819045092441 0.965925826291769 -7.79284329908814e-010
outer loop
vertex 14.8642045121038 -87.9712549359044 -1.25618499952458
vertex 14.4500940390317 -88.0257736165055 -4.25618499931157
vertex 14.4500940399398 -88.0257736138419 -1.25618499931158
endloop
endfacet
facet normal -0.258819045112601 0.965925826286367 -7.79284329897915e-010
outer loop
vertex 14.8642045111958 -87.9712549385681 -4.2561849995246
vertex 15.2500940399398 -87.811414259897 -1.25618499984807
vertex 15.2500940390318 -87.8114142625606 -4.25618499984806
endloop
endfacet
facet normal -0.499999999986917 0.866025403791992 -6.17580938147538e-010
outer loop
vertex 15.2500940399398 -87.811414259897 -1.25618499984807
vertex 14.8642045111958 -87.9712549385681 -4.2561849995246
vertex 14.8642045121038 -87.9712549359044 -1.25618499952458
endloop
endfacet
facet normal -0.500000000013084 0.866025403776885 -6.17580938126204e-010
outer loop
vertex 15.2500940390318 -87.8114142625606 -4.25618499984806
vertex 15.5814648898383 -87.5571444637404 -1.25618500025996
vertex 15.5814648889302 -87.557144466404 -4.25618500025996
endloop
endfacet
facet normal -0.707106781173292 0.707106781199803 -4.13790426052887e-010
outer loop
vertex 15.5814648898383 -87.5571444637404 -1.25618500025996
vertex 15.2500940390318 -87.8114142625606 -4.25618499984806
vertex 15.2500940399398 -87.811414259897 -1.25618499984807
endloop
endfacet
facet normal -0.707106781173292 0.707106781199803 -4.13790426052887e-010
outer loop
vertex 15.5814648898383 -87.5571444637404 -1.25618500025996
vertex 15.8357346850868 -87.2257736165055 -4.2561850007322
vertex 15.5814648889302 -87.557144466404 -4.25618500025996
endloop
endfacet
facet normal -0.866025403794995 0.499999999981715 -1.81800780204492e-010
outer loop
vertex 15.8357346850868 -87.2257736165055 -4.2561850007322
vertex 15.5814648898383 -87.5571444637404 -1.25618500025996
vertex 15.8357346859949 -87.2257736138419 -1.25618500073218
endloop
endfacet
facet normal -0.866025403773882 0.500000000018285 -1.81800780243352e-010
outer loop
vertex 15.8357346859949 -87.2257736138419 -1.25618500073218
vertex 15.9955753610942 -86.8398840886696 -4.2561850012326
vertex 15.8357346850868 -87.2257736165055 -4.2561850007322
endloop
endfacet
facet normal -0.965925826294772 0.258819045081235 6.25782883421526e-011
outer loop
vertex 15.9955753610942 -86.8398840886696 -4.2561850012326
vertex 15.8357346859949 -87.2257736138419 -1.25618500073218
vertex 15.9955753620023 -86.8398840860059 -1.25618500123258
endloop
endfacet
facet normal -2.9536458412259e-010 -1.37644441284987e-009 -1.0
outer loop
vertex 33.6767420555127 -81.9722991293632 -4.25618501223689
vertex 12.7001580642262 -84.8257736165055 -4.25618500400939
vertex 12.7000790321133 -81.9722991293731 -4.25618499798648
endloop
endfacet
facet normal -2.9536458412259e-010 -1.37644441284987e-009 -1.0
outer loop
vertex 12.7001580642262 -84.8257736165055 -4.25618500400939
vertex 33.6767420555127 -81.9722991293632 -4.25618501223689
vertex 14.4500940390317 -84.8257736165055 -4.25618500297926
endloop
endfacet
facet normal -2.9536458412259e-010 -1.37644441284987e-009 -1.0
outer loop
vertex 14.4500940390317 -84.8257736165055 -4.25618500297926
vertex 33.6767420555127 -81.9722991293632 -4.25618501223689
vertex 14.8642045111958 -84.880292294443 -4.25618500306731
endloop
endfacet
facet normal -2.9536458412259e-010 -1.37644441284987e-009 -1.0
outer loop
vertex 14.8642045111958 -84.880292294443 -4.25618500306731
vertex 33.6767420555127 -81.9722991293632 -4.25618501223689
vertex 15.2500940390317 -85.0401329704504 -4.25618500302438
endloop
endfacet
facet normal -2.9536458412259e-010 -1.37644441284987e-009 -1.0
outer loop
vertex 15.2500940390317 -85.0401329704504 -4.25618500302438
vertex 33.6767420555127 -81.9722991293632 -4.25618501223689
vertex 15.5814648889302 -85.2944027666071 -4.2561850028534
endloop
endfacet
facet normal -2.9536458412259e-010 -1.37644441284987e-009 -1.0
outer loop
vertex 15.5814648889302 -85.2944027666071 -4.2561850028534
vertex 33.6767420555127 -81.9722991293632 -4.25618501223689
vertex 15.8357346850868 -85.6257736165055 -4.25618500256604
endloop
endfacet
facet normal -2.9536458412259e-010 -1.37644441284987e-009 -1.0
outer loop
vertex 15.8357346850868 -85.6257736165055 -4.25618500256604
vertex 33.6767420555127 -81.9722991293632 -4.25618501223689
vertex 15.9955753610942 -86.0116631443415 -4.25618500218184
endloop
endfacet
facet normal -2.9536458412259e-010 -1.37644441284987e-009 -1.0
outer loop
vertex 15.9955753610942 -86.0116631443415 -4.25618500218184
vertex 33.6767420555127 -81.9722991293632 -4.25618501223689
vertex 16.0500940390318 -86.4257736165055 -4.25618500172704
endloop
endfacet
facet normal -2.9536458412259e-010 -1.37644441284987e-009 -1.0
outer loop
vertex 33.6767420555127 -82.4722991293632 -4.25618501541468
vertex 35.0432402049405 -86.5669384578686 -4.2561850072787
vertex 34.9767420555127 -86.9792948153104 -4.25618500678191
endloop
endfacet
facet normal -2.9536458412259e-010 -1.37644441284987e-009 -1.0
outer loop
vertex 35.0432402049405 -86.5669384578686 -4.2561850072787
vertex 33.6767420555127 -82.4722991293632 -4.25618501541468
vertex 35.2141981635483 -86.1858437901171 -4.25618500777763
endloop
endfacet
facet normal -2.9536458412259e-010 -1.37644441284987e-009 -1.0
outer loop
vertex 35.2141981635483 -86.1858437901171 -4.25618500777763
vertex 33.6767420555127 -82.4722991293632 -4.25618501541468
vertex 35.4779654289784 -85.8619817838744 -4.2561850082447
endloop
endfacet
facet normal -2.9536458412259e-010 -1.37644441284987e-009 -1.0
outer loop
vertex 35.4779654289784 -85.8619817838744 -4.2561850082447
vertex 33.6767420555127 -82.4722991293632 -4.25618501541468
vertex 39.8261910554133 -82.4722991293731 -4.25618501242114
endloop
endfacet
facet normal -2.9536458412259e-010 -1.37644441284987e-009 -1.0
outer loop
vertex 35.4779654289784 -85.8619817838744 -4.2561850082447
vertex 39.8261910554133 -82.4722991293731 -4.25618501242114
vertex 35.8165666979875 -85.6174230996587 -4.25618500864812
endloop
endfacet
facet normal -2.9536458412259e-010 -1.37644441284987e-009 -1.0
outer loop
vertex 35.8165666979875 -85.6174230996587 -4.25618500864812
vertex 39.8261910554133 -82.4722991293731 -4.25618501242114
vertex 36.2069268536581 -85.4688340076469 -4.25618500896032
endloop
endfacet
facet normal -2.9536458412259e-010 -1.37644441284987e-009 -1.0
outer loop
vertex 36.2069268536581 -85.4688340076469 -4.25618500896032
vertex 39.8261910554133 -82.4722991293731 -4.25618501242114
vertex 36.6224434964815 -85.4263406089047 -4.25618500916007
endloop
endfacet
facet normal -2.9536458412259e-010 -1.37644441284987e-009 -1.0
outer loop
vertex 36.6224434964815 -85.4263406089047 -4.25618500916007
vertex 39.8261910554133 -82.4722991293731 -4.25618501242114
vertex 37.0347998539233 -85.4928387583325 -4.25618500923375
endloop
endfacet
facet normal -2.9536458412259e-010 -1.37644441284987e-009 -1.0
outer loop
vertex 37.0347998539233 -85.4928387583325 -4.25618500923375
vertex 39.8261910554133 -82.4722991293731 -4.25618501242114
vertex 37.4158945216748 -85.6637967169402 -4.25618500917633
endloop
endfacet
facet normal -2.9536458412259e-010 -1.37644441284987e-009 -1.0
outer loop
vertex 37.4158945216748 -85.6637967169402 -4.25618500917633
vertex 39.8261910554133 -82.4722991293731 -4.25618501242114
vertex 37.7397565279175 -85.9275639823702 -4.25618500899175
endloop
endfacet
facet normal -2.9536458412259e-010 -1.37644441284987e-009 -1.0
outer loop
vertex 37.7397565279175 -85.9275639823702 -4.25618500899175
vertex 39.8261910554133 -82.4722991293731 -4.25618501242114
vertex 37.9843152121332 -86.2661652513794 -4.25618500869256
endloop
endfacet
facet normal -2.9536458412259e-010 -1.37644441284987e-009 -1.0
outer loop
vertex 37.9843152121332 -86.2661652513794 -4.25618500869256
vertex 39.8261910554133 -82.4722991293731 -4.25618501242114
vertex 38.132904304145 -86.6565254070499 -4.25618500829916
endloop
endfacet
facet normal -2.9536458412259e-010 -1.37644441284987e-009 -1.0
outer loop
vertex 38.132904304145 -86.6565254070499 -4.25618500829916
vertex 39.8261910554133 -82.4722991293731 -4.25618501242114
vertex 38.1753977028873 -87.0720420498734 -4.25618500783836
endloop
endfacet
facet normal -2.9536458412259e-010 -1.37644441284987e-009 -1.0
outer loop
vertex 38.1753977028873 -87.0720420498734 -4.25618500783836
vertex 39.8261910554133 -82.4722991293731 -4.25618501242114
vertex 38.1753977028873 -88.7756684325919 -4.25618500538363
endloop
endfacet
facet normal -2.9536458412259e-010 -1.37644441284987e-009 -1.0
outer loop
vertex 38.1753977028873 -88.7756684325919 -4.25618500538363
vertex 39.8261910554133 -82.4722991293731 -4.25618501242114
vertex 39.8261910554133 -88.7756684097054 -4.25618499542624
endloop
endfacet
facet normal -2.9536458412259e-010 -1.37644441284987e-009 -1.0
outer loop
vertex 12.7000300087842 -88.0257736165055 -4.25618499828145
vertex 34.9767420555127 -88.7756684097054 -4.25618500110408
vertex 12.7000000000001 -88.7756684097054 -4.25618499542624
endloop
endfacet
facet normal -2.9536458412259e-010 -1.37644441284987e-009 -1.0
outer loop
vertex 34.9767420555127 -88.7756684097054 -4.25618500110408
vertex 12.7000300087842 -88.0257736165055 -4.25618499828145
vertex 14.4500940390317 -88.0257736165055 -4.25618499931157
endloop
endfacet
facet normal -2.9536458412259e-010 -1.37644441284987e-009 -1.0
outer loop
vertex 34.9767420555127 -88.7756684097054 -4.25618500110408
vertex 14.4500940390317 -88.0257736165055 -4.25618499931157
vertex 14.8642045111958 -87.9712549385681 -4.2561849995246
endloop
endfacet
facet normal -2.9536458412259e-010 -1.37644441284987e-009 -1.0
outer loop
vertex 34.9767420555127 -88.7756684097054 -4.25618500110408
vertex 14.8642045111958 -87.9712549385681 -4.2561849995246
vertex 15.2500940390318 -87.8114142625606 -4.25618499984806
endloop
endfacet
facet normal -2.9536458412259e-010 -1.37644441284987e-009 -1.0
outer loop
vertex 34.9767420555127 -88.7756684097054 -4.25618500110408
vertex 15.2500940390318 -87.8114142625606 -4.25618499984806
vertex 15.5814648889302 -87.557144466404 -4.25618500025996
endloop
endfacet
facet normal -2.9536458412259e-010 -1.37644441284987e-009 -1.0
outer loop
vertex 34.9767420555127 -88.7756684097054 -4.25618500110408
vertex 15.5814648889302 -87.557144466404 -4.25618500025996
vertex 15.8357346850868 -87.2257736165055 -4.2561850007322
endloop
endfacet
facet normal -2.9536458412259e-010 -1.37644441284987e-009 -1.0
outer loop
vertex 34.9767420555127 -88.7756684097054 -4.25618500110408
vertex 15.8357346850868 -87.2257736165055 -4.2561850007322
vertex 15.9955753610942 -86.8398840886696 -4.2561850012326
endloop
endfacet
facet normal -2.9536458412259e-010 -1.37644441284987e-009 -1.0
outer loop
vertex 34.9767420555127 -88.7756684097054 -4.25618500110408
vertex 15.9955753610942 -86.8398840886696 -4.2561850012326
vertex 16.0500940390318 -86.4257736165055 -4.25618500172704
endloop
endfacet
facet normal -2.9536458412259e-010 -1.37644441284987e-009 -1.0
outer loop
vertex 34.9767420555127 -88.7756684097054 -4.25618500110408
vertex 16.0500940390318 -86.4257736165055 -4.25618500172704
vertex 33.6767420555127 -82.4722991293632 -4.25618501541468
endloop
endfacet
facet normal -2.9536458412259e-010 -1.37644441284987e-009 -1.0
outer loop
vertex 33.6767420555127 -82.4722991293632 -4.25618501541468
vertex 16.0500940390318 -86.4257736165055 -4.25618500172704
vertex 33.6767420555127 -81.9722991293632 -4.25618501223689
endloop
endfacet
facet normal -2.9536458412259e-010 -1.37644441284987e-009 -1.0
outer loop
vertex 34.9767420555127 -88.7756684097054 -4.25618500110408
vertex 33.6767420555127 -82.4722991293632 -4.25618501541468
vertex 34.9767420555127 -86.9792948153104 -4.25618500678191
endloop
endfacet
facet normal -2.92727557410568e-010 -0.83205029439899 -0.55470019613351
outer loop
vertex 33.6767420561938 -80.9722991285364 -2.75618501038296
vertex 12.7000790321133 -79.9722991293731 -4.25618499798648
vertex 33.6767420555127 -79.9722991293632 -4.25618501004824
endloop
endfacet
facet normal -2.92727557410568e-010 -0.83205029439899 -0.55470019613351
outer loop
vertex 12.7000790321133 -79.9722991293731 -4.25618499798648
vertex 33.6767420561938 -80.9722991285364 -2.75618501038296
vertex 12.7000790327944 -80.9722991280413 -2.75618500017311
endloop
endfacet
facet normal -3.01112221010187e-010 0.832050294033137 -0.554700196682289
outer loop
vertex 12.7000790321133 -81.9722991293731 -4.25618499798648
vertex 33.6767420561938 -80.9722991285364 -2.75618501038296
vertex 33.6767420555127 -81.9722991293632 -4.25618501223689
endloop
endfacet
facet normal -3.01112221010187e-010 0.832050294033137 -0.554700196682289
outer loop
vertex 33.6767420561938 -80.9722991285364 -2.75618501038296
vertex 12.7000790321133 -81.9722991293731 -4.25618499798648
vertex 12.7000790327944 -80.9722991280413 -2.75618500017311
endloop
endfacet
facet normal -1.0 7.66955223870126e-012 1.85602834360592e-010
outer loop
vertex 33.6767420555127 -82.4722991293632 -4.25618501541468
vertex 33.6767420554606 -79.4722991300823 -5.75618501704152
vertex 33.6767420554606 -82.4722991300823 -5.75618501541467
endloop
endfacet
facet normal -1.0 7.66955223870126e-012 1.85602834360592e-010
outer loop
vertex 33.6767420554606 -79.4722991300823 -5.75618501704152
vertex 33.6767420555127 -82.4722991293632 -4.25618501541468
vertex 33.6767420555127 -81.9722991293632 -4.25618501223689
endloop
endfacet
facet normal -1.0 7.66955223870126e-012 1.85602834360592e-010
outer loop
vertex 33.6767420554606 -79.4722991300823 -5.75618501704152
vertex 33.6767420555127 -81.9722991293632 -4.25618501223689
vertex 33.6767420561938 -80.9722991285364 -2.75618501038296
endloop
endfacet
facet normal -1.0 7.66955223870126e-012 1.85602834360592e-010
outer loop
vertex 33.6767420554606 -79.4722991300823 -5.75618501704152
vertex 33.6767420561938 -80.9722991285364 -2.75618501038296
vertex 33.6767420555127 -79.9722991293632 -4.25618501004824
endloop
endfacet
facet normal -1.0 7.66955223870126e-012 1.85602834360592e-010
outer loop
vertex 33.6767420554606 -79.4722991300823 -5.75618501704152
vertex 33.6767420555127 -79.9722991293632 -4.25618501004824
vertex 33.6767420555127 -79.4722991293632 -4.25618501704153
endloop
endfacet
facet normal -7.52761831761352e-010 -5.05463509487276e-009 -1.0
outer loop
vertex 33.6767420555127 -79.4722991293632 -4.25618501704153
vertex 12.7000790321133 -79.9722991293731 -4.25618499798648
vertex 12.7000000000001 -79.4722991293731 -4.25618499604776
endloop
endfacet
facet normal -7.52761831761352e-010 -5.05463509487276e-009 -1.0
outer loop
vertex 12.7000790321133 -79.9722991293731 -4.25618499798648
vertex 33.6767420555127 -79.4722991293632 -4.25618501704153
vertex 33.6767420555127 -79.9722991293632 -4.25618501004824
endloop
endfacet
facet normal -3.47680315835875e-011 -4.79441472381577e-010 -1.0
outer loop
vertex 39.8261910553612 -79.4722991300923 -5.7561850157693
vertex 33.6767420554606 -82.4722991300823 -5.75618501541467
vertex 33.6767420554606 -79.4722991300823 -5.75618501704152
endloop
endfacet
facet normal -3.47680315835875e-011 -4.79441472381577e-010 -1.0
outer loop
vertex 33.6767420554606 -82.4722991300823 -5.75618501541467
vertex 39.8261910553612 -79.4722991300923 -5.7561850157693
vertex 39.8261910553612 -82.4722991300923 -5.75618501242114
endloop
endfacet
facet normal -3.19810686370274e-019 -1.0 4.79441472381577e-010
outer loop
vertex 39.8261910553612 -82.4722991300923 -5.75618501242114
vertex 33.6767420555127 -82.4722991293632 -4.25618501541468
vertex 33.6767420554606 -82.4722991300823 -5.75618501541467
endloop
endfacet
facet normal -3.19810686370274e-019 -1.0 4.79441472381577e-010
outer loop
vertex 33.6767420555127 -82.4722991293632 -4.25618501541468
vertex 39.8261910553612 -82.4722991300923 -5.75618501242114
vertex 39.8261910554133 -82.4722991293731 -4.25618501242114
endloop
endfacet
endsolid Box
