solid Box
facet normal 1.0 0.0 0.0
outer loop
vertex 10.2 43.4243315474598 -9.85618500528697
vertex 10.2 45.4243315474598 -7.85618500528697
vertex 10.2 43.4243315474598 1.69381499471303
endloop
endfacet
facet normal 1.0 0.0 0.0
outer loop
vertex 10.2 45.4243315474598 -7.85618500528697
vertex 10.2 43.4243315474598 -9.85618500528697
vertex 10.2 60.6743315474598 -9.85618500528697
endloop
endfacet
facet normal 1.0 0.0 0.0
outer loop
vertex 10.2 45.4243315474598 -7.85618500528697
vertex 10.2 60.6743315474598 -9.85618500528697
vertex 10.2 58.6743315474598 -7.85618500528697
endloop
endfacet
facet normal 1.0 0.0 0.0
outer loop
vertex 10.2 58.6743315474598 -7.85618500528697
vertex 10.2 60.6743315474598 -9.85618500528697
vertex 10.2 58.6743315474598 -0.30618500528697
endloop
endfacet
facet normal 1.0 0.0 0.0
outer loop
vertex 10.2 43.4243315474598 1.69381499471303
vertex 10.2 45.4243315474598 -0.30618500528697
vertex 10.2 60.6743315474598 1.69381499471303
endloop
endfacet
facet normal 1.0 0.0 0.0
outer loop
vertex 10.2 45.4243315474598 -0.30618500528697
vertex 10.2 43.4243315474598 1.69381499471303
vertex 10.2 45.4243315474598 -7.85618500528697
endloop
endfacet
facet normal 1.0 0.0 0.0
outer loop
vertex 10.2 60.6743315474598 1.69381499471303
vertex 10.2 45.4243315474598 -0.30618500528697
vertex 10.2 58.6743315474598 -0.30618500528697
endloop
endfacet
facet normal 1.0 0.0 0.0
outer loop
vertex 10.2 60.6743315474598 1.69381499471303
vertex 10.2 58.6743315474598 -0.30618500528697
vertex 10.2 60.6743315474598 -9.85618500528697
endloop
endfacet
facet normal 1.0 0.0 0.0
outer loop
vertex 12.7 45.4243315474598 -7.85618500528697
vertex 12.7 47.4243315474598 -5.85618500528697
vertex 12.7 45.4243315474598 -0.30618500528697
endloop
endfacet
facet normal 1.0 0.0 0.0
outer loop
vertex 12.7 47.4243315474598 -5.85618500528697
vertex 12.7 45.4243315474598 -7.85618500528697
vertex 12.7 58.6743315474598 -7.85618500528697
endloop
endfacet
facet normal 1.0 0.0 0.0
outer loop
vertex 12.7 47.4243315474598 -5.85618500528697
vertex 12.7 58.6743315474598 -7.85618500528697
vertex 12.7 56.6743315474598 -5.85618500528697
endloop
endfacet
facet normal 1.0 0.0 0.0
outer loop
vertex 12.7 56.6743315474598 -5.85618500528697
vertex 12.7 58.6743315474598 -7.85618500528697
vertex 12.7 56.6743315474598 -2.30618500528697
endloop
endfacet
facet normal 1.0 0.0 0.0
outer loop
vertex 12.7 45.4243315474598 -0.30618500528697
vertex 12.7 47.4243315474598 -2.30618500528697
vertex 12.7 58.6743315474598 -0.30618500528697
endloop
endfacet
facet normal 1.0 0.0 0.0
outer loop
vertex 12.7 47.4243315474598 -2.30618500528697
vertex 12.7 45.4243315474598 -0.30618500528697
vertex 12.7 47.4243315474598 -5.85618500528697
endloop
endfacet
facet normal 1.0 0.0 0.0
outer loop
vertex 12.7 58.6743315474598 -0.30618500528697
vertex 12.7 47.4243315474598 -2.30618500528697
vertex 12.7 56.6743315474598 -2.30618500528697
endloop
endfacet
facet normal 1.0 0.0 0.0
outer loop
vertex 12.7 58.6743315474598 -0.30618500528697
vertex 12.7 56.6743315474598 -2.30618500528697
vertex 12.7 58.6743315474598 -7.85618500528697
endloop
endfacet
facet normal 0.0 1.0 0.0
outer loop
vertex 10.2 58.6743315474598 -0.30618500528697
vertex 12.7 58.6743315474598 -7.85618500528697
vertex 10.2 58.6743315474598 -7.85618500528697
endloop
endfacet
facet normal 0.0 1.0 0.0
outer loop
vertex 12.7 58.6743315474598 -7.85618500528697
vertex 10.2 58.6743315474598 -0.30618500528697
vertex 12.7 58.6743315474598 -0.30618500528697
endloop
endfacet
facet normal -0.0 -0.0 -1.0
outer loop
vertex 12.7 58.6743315474598 -7.85618500528697
vertex 10.2 45.4243315474598 -7.85618500528697
vertex 10.2 58.6743315474598 -7.85618500528697
endloop
endfacet
facet normal -0.0 -0.0 -1.0
outer loop
vertex 10.2 45.4243315474598 -7.85618500528697
vertex 12.7 58.6743315474598 -7.85618500528697
vertex 12.7 45.4243315474598 -7.85618500528697
endloop
endfacet
facet normal 0.0 -1.0 0.0
outer loop
vertex 12.7 45.4243315474598 -0.30618500528697
vertex 10.2 45.4243315474598 -7.85618500528697
vertex 12.7 45.4243315474598 -7.85618500528697
endloop
endfacet
facet normal 0.0 -1.0 0.0
outer loop
vertex 10.2 45.4243315474598 -7.85618500528697
vertex 12.7 45.4243315474598 -0.30618500528697
vertex 10.2 45.4243315474598 -0.30618500528697
endloop
endfacet
facet normal 0.0 0.0 1.0
outer loop
vertex 12.7 45.4243315474598 -0.30618500528697
vertex 10.2 58.6743315474598 -0.30618500528697
vertex 10.2 45.4243315474598 -0.30618500528697
endloop
endfacet
facet normal 0.0 0.0 1.0
outer loop
vertex 10.2 58.6743315474598 -0.30618500528697
vertex 12.7 45.4243315474598 -0.30618500528697
vertex 12.7 58.6743315474598 -0.30618500528697
endloop
endfacet
facet normal -1.0 0.0 0.0
outer loop
vertex 8.19999999999998 60.6743315474598 1.69381499471303
vertex 8.19999999999998 43.4243315474598 -9.85618500528697
vertex 8.19999999999998 43.4243315474598 1.69381499471303
endloop
endfacet
facet normal -1.0 0.0 0.0
outer loop
vertex 8.19999999999998 43.4243315474598 -9.85618500528697
vertex 8.19999999999998 60.6743315474598 1.69381499471303
vertex 8.19999999999998 60.6743315474598 -9.85618500528697
endloop
endfacet
facet normal 0.0 0.0 1.0
outer loop
vertex 10.2 43.4243315474598 1.69381499471303
vertex 8.19999999999998 60.6743315474598 1.69381499471303
vertex 8.19999999999998 43.4243315474598 1.69381499471303
endloop
endfacet
facet normal 0.0 0.0 1.0
outer loop
vertex 8.19999999999998 60.6743315474598 1.69381499471303
vertex 10.2 43.4243315474598 1.69381499471303
vertex 10.2 60.6743315474598 1.69381499471303
endloop
endfacet
facet normal 0.0 1.0 0.0
outer loop
vertex 8.19999999999998 60.6743315474598 1.69381499471303
vertex 10.2 60.6743315474598 -9.85618500528697
vertex 8.19999999999998 60.6743315474598 -9.85618500528697
endloop
endfacet
facet normal 0.0 1.0 0.0
outer loop
vertex 10.2 60.6743315474598 -9.85618500528697
vertex 8.19999999999998 60.6743315474598 1.69381499471303
vertex 10.2 60.6743315474598 1.69381499471303
endloop
endfacet
facet normal -0.0 -0.0 -1.0
outer loop
vertex 10.2 60.6743315474598 -9.85618500528697
vertex 8.19999999999998 43.4243315474598 -9.85618500528697
vertex 8.19999999999998 60.6743315474598 -9.85618500528697
endloop
endfacet
facet normal -0.0 -0.0 -1.0
outer loop
vertex 8.19999999999998 43.4243315474598 -9.85618500528697
vertex 10.2 60.6743315474598 -9.85618500528697
vertex 10.2 43.4243315474598 -9.85618500528697
endloop
endfacet
facet normal 0.0 -1.0 0.0
outer loop
vertex 10.2 43.4243315474598 1.69381499471303
vertex 8.19999999999998 43.4243315474598 -9.85618500528697
vertex 10.2 43.4243315474598 -9.85618500528697
endloop
endfacet
facet normal 0.0 -1.0 0.0
outer loop
vertex 8.19999999999998 43.4243315474598 -9.85618500528697
vertex 10.2 43.4243315474598 1.69381499471303
vertex 8.19999999999998 43.4243315474598 1.69381499471303
endloop
endfacet
facet normal 1.0 0.0 0.0
outer loop
vertex 10.2 56.6743315474598 -5.85618500528697
vertex 10.2 47.4243315474598 -2.30618500528697
vertex 10.2 47.4243315474598 -5.85618500528697
endloop
endfacet
facet normal 1.0 0.0 0.0
outer loop
vertex 10.2 47.4243315474598 -2.30618500528697
vertex 10.2 56.6743315474598 -5.85618500528697
vertex 10.2 56.6743315474598 -2.30618500528697
endloop
endfacet
facet normal 0.0 1.0 0.0
outer loop
vertex 10.2 47.4243315474598 -2.30618500528697
vertex 12.7 47.4243315474598 -5.85618500528697
vertex 10.2 47.4243315474598 -5.85618500528697
endloop
endfacet
facet normal 0.0 1.0 0.0
outer loop
vertex 12.7 47.4243315474598 -5.85618500528697
vertex 10.2 47.4243315474598 -2.30618500528697
vertex 12.7 47.4243315474598 -2.30618500528697
endloop
endfacet
facet normal 0.0 0.0 1.0
outer loop
vertex 12.7 47.4243315474598 -5.85618500528697
vertex 10.2 56.6743315474598 -5.85618500528697
vertex 10.2 47.4243315474598 -5.85618500528697
endloop
endfacet
facet normal 0.0 0.0 1.0
outer loop
vertex 10.2 56.6743315474598 -5.85618500528697
vertex 12.7 47.4243315474598 -5.85618500528697
vertex 12.7 56.6743315474598 -5.85618500528697
endloop
endfacet
facet normal 0.0 -1.0 0.0
outer loop
vertex 12.7 56.6743315474598 -2.30618500528697
vertex 10.2 56.6743315474598 -5.85618500528697
vertex 12.7 56.6743315474598 -5.85618500528697
endloop
endfacet
facet normal 0.0 -1.0 0.0
outer loop
vertex 10.2 56.6743315474598 -5.85618500528697
vertex 12.7 56.6743315474598 -2.30618500528697
vertex 10.2 56.6743315474598 -2.30618500528697
endloop
endfacet
facet normal -0.0 -0.0 -1.0
outer loop
vertex 12.7 56.6743315474598 -2.30618500528697
vertex 10.2 47.4243315474598 -2.30618500528697
vertex 10.2 56.6743315474598 -2.30618500528697
endloop
endfacet
facet normal -0.0 -0.0 -1.0
outer loop
vertex 10.2 47.4243315474598 -2.30618500528697
vertex 12.7 56.6743315474598 -2.30618500528697
vertex 12.7 47.4243315474598 -2.30618500528697
endloop
endfacet
endsolid Box
